# AST/ASF file generated using VICON BodyLanguage
# -----------------------------------------------
:version 1.10
:name VICON
:units
  mass 1.0
  length 0.45
  angle deg
:documentation
   .ast/.asf automatically generated from VICON data using
   VICON BodyBuilder and BodyLanguage model FoxedUp or BRILLIANT.MOD
:root
   order TX TY TZ RX RY RZ
   axis XYZ
   position 0 0 0  
   orientation 0 0 0 
:bonedata
  begin
     id 1 
     name lhipjoint
     direction 0.589753 -0.68606 0.426044 
     length 2.54082 
     axis 0 0 0  XYZ
  end
  begin
     id 2 
     name lfemur
     direction 0.34202 -0.939693 0  
     length 7.04539  
     axis 0 0 20  XYZ
    dof rx ry rz
    limits (-160.0 20.0)
           (-70.0 70.0)
           (-60.0 70.0)
  end
  begin
     id 3 
     name ltibia
     direction 0.34202 -0.939693 0   
     length 7.83772   
     axis 0 0 20   XYZ
    dof rx
    limits (-10.0 170.0)
  end
  begin
     id 4 
     name lfoot
     direction 0.0596604 -0.163915 0.984669   
     length 2.39542   
     axis -90 7.62852e-016 20   XYZ
    dof rx rz
    limits (-45.0 90.0)
           (-70.0 20.0)
  end
  begin
     id 5 
     name ltoes
     direction 1.53514e-011 -4.21954e-011 1   
     length 1.2047   
     axis -90 7.62852e-016 20   XYZ
    dof rx
    limits (-90.0 20.0)
  end
  begin
     id 6 
     name rhipjoint
     direction -0.580585 -0.69168 0.429534   
     length 2.52018  
     axis 0 0 0  XYZ 
  end
  begin
     id 7 
     name rfemur
     direction -0.34202 -0.939693 0   
     length 7.0101   
     axis 0 0 -20   XYZ
    dof rx ry rz
    limits (-160.0 20.0)
           (-70.0 70.0)
           (-70.0 60.0)
  end
  begin
     id 8 
     name rtibia
     direction -0.34202 -0.939693 0   
     length 7.70628   
     axis 0 0 -20   XYZ
    dof rx
    limits (-10.0 170.0)
 end
 begin
     id 9 
     name rfoot
     direction -0.0696237 -0.19129 0.979061   
     length 2.52466  
     axis -90 -7.62852e-016 -20   XYZ
    dof rx rz
    limits (-45.0 90.0)
           (-20.0 70.0)
  end
  begin
     id 10 
     name rtoes
     direction -1.53519e-011 -4.21793e-011 1   
     length 1.266   
     axis -90 -7.62852e-016 -20   XYZ
    dof rx
    limits (-90.0 20.0)
  end
  begin
     id 11 
     name lowerback
     direction 0.00381965 0.995707 -0.0924856   
     length 2.20825   
     axis 0 0 0   XYZ
    dof rx ry rz
    limits (-20.0 45.0)
           (-30.0 30.0)
           (-30.0 30.0)
  end
  begin
     id 12 
     name upperback
     direction -0.0139043 0.999634 -0.0231929   
     length 2.21517   
     axis 0 0 0   XYZ
    dof rx ry rz
    limits (-20.0 45.0)
           (-30.0 30.0)
           (-30.0 30.0)
  end
  begin
     id 13 
     name thorax
     direction -0.0143933 0.999691 0.0202892   
     length 2.22911   
     axis 0 0 0   XYZ
    dof rx ry rz
    limits (-20.0 45.0)
           (-30.0 30.0)
           (-30.0 30.0)
  end
  begin
     id 14 
     name lowerneck
     direction -0.0251153 0.981819 0.188153   
     length 1.61782   
     axis 0 0 0   XYZ
    dof rx ry rz
    limits (-20.0 45.0)
           (-30.0 30.0)
           (-30.0 30.0)
  end
  begin
     id 15 
     name upperneck
     direction 0.0563891 0.969357 -0.239095   
     length 1.64526   
     axis 0 0 0   XYZ
    dof rx ry rz
    limits (-20.0 45.0)
           (-30.0 30.0)
           (-30.0 30.0)
  end
  begin
     id 16
     name head
     direction 0.0208328 0.99459 -0.101773  
     length 1.67436  
     axis 0 0 0   XYZ
    dof rx ry rz
    limits (-20.0 45.0)
           (-30.0 30.0)
           (-30.0 30.0)
  end
  begin
     id 17 
     name lclavicle
     direction 0.917689 0.397224 0.00772059  
     length 3.31102  
     axis 0 0 0   XYZ
    dof ry rz
    limits (-20.0 10.0)
           (0.0 20.0)
  end
  begin
     id 18 
     name lhumerus
     direction 1 -4.4896e-011 2.32308e-027   
     length 5.25537   
     axis 180 -30 -90   XYZ
    dof rx ry rz
    limits (-60.0 90.0)
           (-90.0 90.0)
           (-90.0 90.0)
  end
  begin
     id 19
     name lradius
     direction 1 -4.49005e-011 -2.04271e-027   
     length 3.38855   
     axis 180 -30 -90   XYZ
    dof rx
    limits (-10.0 170.0)
  end
  begin
     id 20
     name lwrist
     direction 1 -4.48892e-011 2.56952e-028   
     length 1.69428   
     axis -5.12785e-016 90 90   XYZ
    dof ry
    limits (-180.0 0.0)
 end
  begin
     id 21 
     name lhand
     direction 1 -4.48966e-011 5.13905e-028   
     length 0.614516   
     axis -3.27915e-016 90 90   XYZ
    dof rx rz
    limits (-90.0 90.0)
           (-45.0 45.0)
  end
  begin
     id 22 
     name lfingers
     direction 1 -4.48979e-011 1.02781e-027   
     length 0.495439   
     axis -6.5583e-016 90 90   XYZ
    dof rx
    limits (0.0 90.0)
  end
  begin
     id 23
     name lthumb
     direction 0.707107 -6.35001e-011 0.707107   
     length 0.711354   
     axis -90 45 2.85299e-015   XYZ
    dof rx rz
    limits (-45.0 45.0)
           (-45.0 45.0)
  end
  begin
     id 24 
     name rclavicle
     direction -0.938556 0.342765 -0.0403177   
     length 3.27019  
     axis 0 0 0   XYZ 
    dof ry rz
    limits (-10.0 20.0)
           (-20.0 0.0)
  end
  begin
     id 25 
     name rhumerus
     direction -1 -4.48966e-011 2.52291e-027  
     length 5.38183   
     axis 180 30 90   XYZ
    dof rx ry rz
    limits (-90.0 60.0)
           (-90.0 90.0)
           (-90.0 90.0)
  end
  begin
     id 26 
     name rradius
     direction -1 -4.4896e-011 1.5797e-027   
     length 3.16988   
     axis 180 30 90   XYZ
    dof rx
    limits (-10.0 170.0)
  end
  begin
     id 27 
     name rwrist
     direction -1 -4.48947e-011 2.56952e-028   
     length 1.58494   
     axis -5.12785e-016 -90 -90   XYZ
    dof ry
    limits (-180.0 0.0)
  end
  begin
     id 28
     name rhand
     direction -1 -4.49098e-011 5.13905e-028   
     length 0.637679   
     axis -3.27915e-016 -90 -90   XYZ
    dof rx rz
    limits (-90.0 90.0)
           (-45.0 45.0)
  end
  begin
     id 29
     name rfingers
     direction -1 -4.49026e-011 1.02781e-027   
     length 0.514113   
     axis -6.5583e-016 -90 -90   XYZ
    dof rx
    limits (0.0 90.0)
  end
  begin
     id 30
     name rthumb
     direction -0.707107 -6.3491e-011 0.707107   
     length 0.738167   
     axis -90 -45 -2.85299e-015   XYZ
    dof rx rz
    limits (-45.0 45.0)
           (-45.0 45.0)
  end
:hierarchy
  begin
    root lhipjoint rhipjoint lowerback
    lhipjoint lfemur
    lfemur ltibia
    ltibia lfoot
    lfoot ltoes
    rhipjoint rfemur
    rfemur rtibia
    rtibia rfoot
    rfoot rtoes
    lowerback upperback
    upperback thorax
    thorax lowerneck lclavicle rclavicle
    lowerneck upperneck
    upperneck head
    lclavicle lhumerus
    lhumerus lradius
    lradius lwrist
    lwrist lhand lthumb
    lhand lfingers
    rclavicle rhumerus
    rhumerus rradius
    rradius rwrist
    rwrist rhand rthumb
    rhand rfingers
  end

#!OML:ASF H:\Swim\Project 1\Capture day 1\Session 1\swimmer.ASF
:FULLY-SPECIFIED
:DEGREES
1926
root 4.47188 11.4861 25.4833 113.291 -2.19482 -2.10828
lowerback -6.23614 0.0472276 -9.31792
upperback -5.03284 0.541719 4.37352
thorax -1.93892 0.632365 9.96488
lowerneck -16.9066 -6.21697 -15.7941
upperneck -4.92398 -5.64864 12.0077
head 2.00761 -2.33162 5.87921
rclavicle 3.67752e-015 2.12451e-015
rhumerus 34.2363 -15.7519 9.32991
rradius 39.2578
rwrist -20.6058
rhand -11.185 -3.84927
rfingers 7.12502
rthumb 14.8423 -33.2977
lclavicle 3.67752e-015 2.12451e-015
lhumerus 30.3989 20.8036 8.30371
lradius 34.8153
lwrist -1.94575
lhand -5.8148 18.5532
lfingers 7.12502
lthumb 20.0104 -312.457
rfemur -31.4284 4.32418 21.2896
rtibia 38.0229
rfoot 8.66777 -7.43295
rtoes 0.291042
lfemur -31.4454 -3.61504 -21.0402
ltibia 37.5956
lfoot 13.8842 -3.31907
ltoes -5.3593
1927
root 4.4684 11.4818 25.499 113.175 -2.20278 -2.01803
lowerback -6.27854 0.0423459 -9.70722
upperback -5.24833 0.558427 4.61635
thorax -2.16686 0.683141 10.4681
lowerneck -16.8863 -6.1886 -15.7515
upperneck -5.07491 -5.60522 11.5792
head 1.93013 -2.32103 5.74067
rclavicle 3.13086e-015 -1.98163e-014
rhumerus 34.1839 -15.08 8.35284
rradius 40.9576
rwrist -22.127
rhand -11.3216 -3.44867
rfingers 7.12502
rthumb 14.7107 -32.9067
lclavicle 3.13086e-015 -1.98163e-014
lhumerus 29.9328 20.5617 10.7332
lradius 36.9439
lwrist -0.465592
lhand -6.38678 17.946
lfingers 7.12502
lthumb 19.4605 -313.008
rfemur -31.2755 4.30178 21.3437
rtibia 37.957
rfoot 8.68942 -7.50879
rtoes 0.431515
lfemur -31.3997 -3.70639 -21.0018
ltibia 37.5006
lfoot 13.9929 -3.4259
ltoes -5.27687
1928
root 4.46487 11.4759 25.5154 113.07 -2.21748 -1.93004
lowerback -6.3213 0.0448409 -10.1687
upperback -5.49887 0.589245 4.87542
thorax -2.44119 0.751626 11.0372
lowerneck -16.7836 -6.15246 -15.7856
upperneck -5.23398 -5.55181 11.2403
head 1.84361 -2.30324 5.64571
rclavicle -1.63997e-014 -3.589e-014
rhumerus 34.0862 -14.3372 7.40357
rradius 42.8128
rwrist -23.7379
rhand -11.3808 -3.05583
rfingers 7.12502
rthumb 14.6536 -32.5181
lclavicle -1.63997e-014 -3.589e-014
lhumerus 29.4025 20.1927 13.2149
lradius 39.2904
lwrist 1.12338
lhand -6.95543 17.3527
lfingers 7.12502
lthumb 18.9137 -313.547
rfemur -31.1568 4.29651 21.3806
rtibia 37.8549
rfoot 8.66896 -7.49724
rtoes 0.521353
lfemur -31.3908 -3.81901 -20.9587
ltibia 37.3636
lfoot 14.0536 -3.5457
ltoes -5.14834
1929
root 4.46135 11.4685 25.5325 112.97 -2.24344 -1.84979
lowerback -6.351 0.057951 -10.6912
upperback -5.77579 0.636674 5.13497
thorax -2.76183 0.839331 11.6489
lowerneck -16.6342 -6.11024 -15.804
upperneck -5.4076 -5.50151 10.9067
head 1.74663 -2.28759 5.55069
rclavicle -9.96408e-015 -2.85908e-014
rhumerus 33.9189 -13.5364 6.47614
rradius 44.8008
rwrist -25.2711
rhand -11.3422 -2.65559
rfingers 7.12502
rthumb 14.6908 -32.1151
lclavicle -9.96408e-015 -2.85908e-014
lhumerus 28.7798 19.6433 15.6528
lradius 41.8537
lwrist 2.73355
lhand -7.54838 16.7905
lfingers 7.12502
lthumb 18.3433 -314.054
rfemur -31.0674 4.29923 21.3967
rtibia 37.7183
rfoot 8.61783 -7.40482
rtoes 0.564444
lfemur -31.4127 -3.94198 -20.9204
ltibia 37.1884
lfoot 14.0382 -3.68773
ltoes -5.08485
1930
root 4.45789 11.4597 25.5505 112.869 -2.27861 -1.7782
lowerback -6.34752 0.0886432 -11.2656
upperback -6.08852 0.707425 5.38778
thorax -3.15378 0.953031 12.2905
lowerneck -16.4082 -6.05803 -15.7212
upperneck -5.60742 -5.46843 10.469
head 1.62604 -2.28605 5.40648
rclavicle 4.77083e-015 -3.30355e-014
rhumerus 33.6525 -12.6473 5.58121
rradius 46.9042
rwrist -26.6064
rhand -11.2177 -2.23304
rfingers 7.12502
rthumb 14.8107 -31.6838
lclavicle 4.77083e-015 -3.30355e-014
lhumerus 28.0544 18.8252 17.9935
lradius 44.611
lwrist 4.23036
lhand -8.24129 16.2869
lfingers 7.12502
lthumb 17.6767 -314.497
rfemur -31.001 4.29599 21.3982
rtibia 37.5511
rfoot 8.54497 -7.2288
rtoes 0.514151
lfemur -31.4531 -4.06844 -20.8876
ltibia 36.9769
lfoot 13.9327 -3.84166
ltoes -5.13265
1931
root 4.45446 11.4495 25.5693 112.763 -2.31253 -1.71951
lowerback -6.31433 0.135182 -11.8481
upperback -6.40747 0.796822 5.61805
thorax -3.58144 1.08505 12.9169
lowerneck -16.2076 -6.00698 -15.5118
upperneck -5.81554 -5.45688 9.92446
head 1.50204 -2.29866 5.20674
rclavicle 2.00773e-014 1.57413e-014
rhumerus 33.2967 -11.7129 4.66855
rradius 49.0972
rwrist -27.6566
rhand -11.0235 -1.77251
rfingers 7.12502
rthumb 14.9978 -31.2094
lclavicle 2.00773e-014 1.57413e-014
lhumerus 27.2412 17.7713 20.1903
lradius 47.5163
lwrist 5.42253
lhand -9.08208 15.8445
lfingers 7.12502
lthumb 16.8674 -314.868
rfemur -30.9517 4.2871 21.3976
rtibia 37.3514
rfoot 8.46471 -6.98504
rtoes 0.369735
lfemur -31.5084 -4.18516 -20.853
ltibia 36.7371
lfoot 13.7319 -4.00688
ltoes -5.32522
1932
root 4.45112 11.438 25.5893 112.651 -2.33817 -1.67431
lowerback -6.24201 0.201347 -12.4157
upperback -6.73958 0.907517 5.82723
thorax -4.05884 1.2378 13.5151
lowerneck -16.0667 -5.97158 -15.2214
upperneck -5.9886 -5.47407 9.2908
head 1.39528 -2.32772 4.96321
rclavicle -1.51076e-014 -3.88873e-014
rhumerus 32.8472 -10.7112 3.74169
rradius 51.3728
rwrist -28.3963
rhand -10.7782 -1.25948
rfingers 7.12502
rthumb 15.2341 -30.6786
lclavicle -1.51076e-014 -3.88873e-014
lhumerus 26.3548 16.4739 22.2546
lradius 50.5219
lwrist 6.19143
lhand -10.0747 15.4523
lfingers 7.12502
lthumb 15.9117 -315.181
rfemur -30.9166 4.27073 21.4026
rtibia 37.12
rfoot 8.37473 -6.69539
rtoes 0.146017
lfemur -31.5782 -4.29484 -20.8064
ltibia 36.4774
lfoot 13.4525 -4.1478
ltoes -5.51415
